<mxfile host="app.diagrams.net" modified="2024-01-10T09:24:58.436Z" agent="Mozilla/5.0 (Windows NT 10.0; Win64; x64) AppleWebKit/537.36 (KHTML, like Gecko) Chrome/120.0.0.0 Safari/537.36" version="22.1.18" etag="Z4GG_JDeZlfpPEO5My-c" type="github">
  <diagram name="Page-1" id="5Q2N8aVGwUMZL07OCT5p">
    <mxGraphModel>
      <root>
        <mxCell id="0" />
        <mxCell id="1" parent="0" />
      </root>
    </mxGraphModel>
  </diagram>
</mxfile>
